<mxfile host="Electron" modified="2023-06-28T03:36:19.210Z" agent="Mozilla/5.0 (Windows NT 10.0; Win64; x64) AppleWebKit/537.36 (KHTML, like Gecko) draw.io/21.5.0 Chrome/112.0.5615.204 Electron/24.5.1 Safari/537.36" etag="IRCZVehV4XI5UtQORGg5" version="21.5.0" type="device">
  <diagram name="Page-1" id="3plIlSbKqdFwmDzL-9Em">
    <mxGraphModel dx="780" dy="504" grid="1" gridSize="10" guides="1" tooltips="1" connect="1" arrows="1" fold="1" page="1" pageScale="1" pageWidth="850" pageHeight="1100" math="0" shadow="0">
      <root>
        <mxCell id="0" />
        <mxCell id="1" parent="0" />
        <mxCell id="tioAc9OCKcDfbmzUCkAg-2" value="" style="whiteSpace=wrap;html=1;aspect=fixed;fillStyle=solid;" vertex="1" parent="1">
          <mxGeometry x="30" y="20" width="720" height="720" as="geometry" />
        </mxCell>
        <mxCell id="tioAc9OCKcDfbmzUCkAg-3" value="Employee Managment Programm Brain Storm&amp;nbsp;&amp;nbsp;" style="text;html=1;strokeColor=none;fillColor=none;align=center;verticalAlign=middle;whiteSpace=wrap;rounded=0;" vertex="1" parent="1">
          <mxGeometry x="240" y="30" width="390" height="30" as="geometry" />
        </mxCell>
        <mxCell id="tioAc9OCKcDfbmzUCkAg-4" value="&lt;h1 style=&quot;font-size: 14px;&quot;&gt;&lt;font style=&quot;font-size: 14px;&quot;&gt;Look up an employee in the dictionary&lt;/font&gt;&lt;/h1&gt;&lt;p style=&quot;font-size: 14px;&quot;&gt;&lt;/p&gt;&lt;ul&gt;&lt;li&gt;name = input()&lt;/li&gt;&lt;li&gt;number = input(int)&lt;/li&gt;&lt;li&gt;obj = employee.Employee(name, number)&lt;/li&gt;&lt;li&gt;return statement&lt;/li&gt;&lt;li&gt;&lt;br&gt;&lt;/li&gt;&lt;/ul&gt;&lt;p&gt;&lt;/p&gt;" style="text;html=1;spacing=5;spacingTop=-20;whiteSpace=wrap;overflow=hidden;rounded=0;fillColor=#dae8fc;strokeColor=#6c8ebf;" vertex="1" parent="1">
          <mxGeometry x="70" y="330" width="300" height="90" as="geometry" />
        </mxCell>
      </root>
    </mxGraphModel>
  </diagram>
</mxfile>
